<svg xmlns="http://www.w3.org/2000/svg" xmlns:xlink="http://www.w3.org/1999/xlink" version="1.1" x="0px" y="0px" viewBox="0 0 64 80" style="enable-background:new 0 0 64 64;" xml:space="preserve"><path d="M42.3,21.3c-1.3-1.3-2.9-2.4-4.6-3.1c-1.8-0.8-3.7-1.1-5.7-1.1s-3.9,0.4-5.7,1.1c-1.7,0.7-3.3,1.8-4.6,3.1  c-1.3,1.3-2.4,2.9-3.1,4.6c-0.8,1.8-1.1,3.7-1.1,5.7s0.4,3.9,1.1,5.7c0.7,1.7,1.8,3.3,3.1,4.6c1.3,1.3,2.9,2.4,4.6,3.1  c1.8,0.8,3.7,1.1,5.7,1.1s3.9-0.4,5.7-1.1c1.7-0.7,3.3-1.8,4.6-3.1c1.3-1.3,2.4-2.9,3.1-4.6c0.8-1.8,1.1-3.7,1.1-5.7  s-0.4-3.9-1.1-5.7C44.7,24.2,43.7,22.7,42.3,21.3z M32,44.3c-7,0-12.7-5.7-12.7-12.7C19.3,24.7,25,19,32,19c7,0,12.7,5.7,12.7,12.7  C44.7,38.6,39,44.3,32,44.3z"/><path d="M26.4,12.9c0.1,0.4,0.5,0.7,0.9,0.7c0.1,0,0.2,0,0.2,0c0.5-0.1,0.8-0.6,0.7-1.2l-1.3-5.4c-0.1-0.5-0.6-0.8-1.2-0.7  c-0.5,0.1-0.8,0.6-0.7,1.2L26.4,12.9z"/><path d="M18.3,17.7c0.2,0.2,0.5,0.3,0.7,0.3c0.2,0,0.5-0.1,0.6-0.2c0.4-0.4,0.4-1,0.1-1.4l-3.7-4.1c-0.4-0.4-1-0.4-1.4-0.1  c-0.4,0.4-0.4,1-0.1,1.4L18.3,17.7z"/><path d="M8.3,23.7l5.2,2c0.1,0,0.2,0.1,0.3,0.1c0.4,0,0.8-0.2,0.9-0.6c0.2-0.5-0.1-1.1-0.6-1.2l-5.2-2c-0.5-0.2-1.1,0.1-1.2,0.6  C7.5,22.9,7.8,23.5,8.3,23.7z"/><path d="M13.6,33.9c-0.1-0.5-0.5-0.9-1.1-0.8L7,33.7c-0.5,0.1-0.9,0.5-0.8,1.1c0.1,0.5,0.5,0.8,1,0.8c0,0,0.1,0,0.1,0l5.5-0.7  C13.3,34.9,13.7,34.4,13.6,33.9z"/><path d="M16.7,42.2c-0.3-0.4-0.9-0.5-1.3-0.2l-4.5,3.1c-0.4,0.3-0.5,0.9-0.2,1.3c0.2,0.3,0.5,0.4,0.8,0.4c0.2,0,0.4-0.1,0.5-0.2  l4.5-3.1C16.9,43.2,17,42.6,16.7,42.2z"/><path d="M23.4,48c-0.5-0.2-1.1-0.1-1.3,0.4l-2.6,4.9c-0.2,0.5-0.1,1.1,0.4,1.3c0.1,0.1,0.3,0.1,0.4,0.1c0.3,0,0.7-0.2,0.9-0.5  l2.6-4.9C24,48.9,23.9,48.3,23.4,48z"/><path d="M32,50.2c-0.5,0-1,0.4-1,1v5.5c0,0.5,0.4,1,1,1s1-0.4,1-1v-5.5C33,50.6,32.5,50.2,32,50.2z"/><path d="M41.9,48.5c-0.2-0.5-0.8-0.7-1.3-0.4c-0.5,0.2-0.7,0.8-0.4,1.3l2.6,4.9c0.2,0.3,0.5,0.5,0.9,0.5c0.2,0,0.3,0,0.4-0.1  c0.5-0.2,0.7-0.8,0.4-1.3L41.9,48.5z"/><path d="M53.1,45.1l-4.5-3.1c-0.4-0.3-1-0.2-1.3,0.2c-0.3,0.4-0.2,1,0.2,1.3l4.5,3.1c0.2,0.1,0.4,0.2,0.5,0.2c0.3,0,0.6-0.1,0.8-0.4  C53.7,46,53.6,45.4,53.1,45.1z"/><path d="M57,33.7L51.5,33c-0.5-0.1-1,0.3-1.1,0.8c-0.1,0.5,0.3,1,0.8,1.1l5.5,0.7c0,0,0.1,0,0.1,0c0.5,0,0.9-0.4,1-0.8  C57.9,34.2,57.5,33.8,57,33.7z"/><path d="M49.3,25.1c0.1,0.4,0.5,0.6,0.9,0.6c0.1,0,0.2,0,0.3-0.1l5.2-2c0.5-0.2,0.7-0.7,0.6-1.2c-0.2-0.5-0.7-0.7-1.2-0.6l-5.2,2  C49.4,24,49.1,24.6,49.3,25.1z"/><path d="M44.3,17.8c0.2,0.2,0.4,0.2,0.6,0.2c0.3,0,0.5-0.1,0.7-0.3l3.7-4.1c0.4-0.4,0.3-1-0.1-1.4c-0.4-0.4-1-0.3-1.4,0.1l-3.7,4.1  C43.9,16.8,43.9,17.4,44.3,17.8z"/><path d="M36.4,13.6c0.1,0,0.2,0,0.2,0c0.4,0,0.8-0.3,0.9-0.7l1.3-5.4c0.1-0.5-0.2-1-0.7-1.2c-0.5-0.1-1,0.2-1.2,0.7l-1.3,5.4  C35.6,13,35.9,13.5,36.4,13.6z"/></svg>